<?xml version="1.0" standalone="no"?>
<!DOCTYPE svg PUBLIC "-//W3C//DTD SVG 20010904//EN"
 "http://www.w3.org/TR/2001/REC-SVG-20010904/DTD/svg10.dtd">
<svg version="1.0" xmlns="http://www.w3.org/2000/svg"
 width="1080.000000pt" height="1080.000000pt" viewBox="0 0 1080.000000 1080.000000"
 preserveAspectRatio="xMidYMid meet">

<g transform="translate(0.000000,1080.000000) scale(0.100000,-0.100000)"
fill="#000000" stroke="none">
<path d="M1580 9886 c-86 -19 -129 -35 -220 -82 -218 -112 -379 -322 -434
-562 -15 -65 -16 -403 -16 -3724 0 -3615 0 -3654 20 -3736 39 -163 121 -304
246 -423 38 -35 88 -90 112 -120 123 -162 292 -273 485 -319 81 -20 134 -20
3733 -20 l3650 0 85 21 c138 34 272 105 373 201 122 114 194 225 247 383 l24
70 3 3679 c2 3636 2 3679 -18 3762 -38 161 -121 304 -242 420 -40 39 -92 95
-116 126 -123 161 -292 272 -485 318 -81 20 -132 20 -3737 19 -2840 -1 -3667
-4 -3710 -13z m7488 -90 c141 -49 269 -137 359 -246 62 -75 135 -215 160 -310
17 -61 18 -270 18 -3730 l0 -3665 -23 -75 c-83 -265 -266 -450 -537 -541 l-70
-24 -3645 -3 c-2738 -2 -3662 0 -3715 8 -255 43 -484 231 -583 480 -55 137
-52 -105 -52 3837 0 2328 3 3657 9 3685 27 117 86 238 163 335 70 89 201 184
318 231 133 54 -103 51 3850 49 l3665 -2 83 -29z"/>
<path d="M5724 5253 c5 -20 -12 -80 -52 -200 l-59 -173 26 6 c14 4 29 9 32 13
16 16 89 251 89 284 0 35 -23 97 -36 97 -3 0 -3 -12 0 -27z"/>
<path d="M3540 5160 c23 -67 25 -108 5 -183 -22 -83 -59 -151 -115 -209 -48
-49 -49 -53 -35 -75 9 -13 19 -23 24 -23 19 0 109 111 135 165 64 135 58 260
-17 360 -12 15 -11 7 3 -35z"/>
<path d="M3132 5109 c-24 -5 -58 -17 -75 -28 -71 -44 -68 -38 -232 -498 l-44
-121 31 9 c17 4 32 10 33 11 1 2 17 43 35 91 23 66 30 98 26 123 -10 51 11
111 54 158 21 23 42 55 46 71 10 39 82 110 128 125 20 6 59 10 86 8 55 -3 59
0 31 26 -27 24 -70 33 -119 25z"/>
<path d="M4372 4795 c-1 -23 -44 -167 -102 -335 -83 -242 -99 -299 -91 -317 9
-19 31 -33 31 -19 0 2 45 133 100 291 106 305 116 353 81 396 l-19 23 0 -39z"/>
<path d="M5925 4725 c32 -90 4 -196 -69 -263 -40 -37 -42 -41 -30 -63 20 -35
17 -100 -8 -184 -16 -56 -19 -78 -11 -86 21 -21 40 -2 56 58 20 70 21 117 4
157 -12 28 -11 31 24 63 95 86 111 241 36 338 -15 18 -15 17 -2 -20z"/>
<path d="M5100 4725 c13 -34 13 -130 0 -176 -15 -53 -51 -101 -92 -124 -31
-17 -43 -18 -77 -9 -37 10 -39 9 -31 -6 15 -28 78 -53 118 -46 46 7 97 57 117
114 21 63 19 167 -4 218 -22 48 -47 71 -31 29z"/>
<path d="M8271 4722 c19 -56 4 -127 -70 -336 -61 -170 -83 -256 -67 -256 2 0
11 -3 19 -6 9 -3 16 3 20 18 3 13 37 115 76 228 39 112 71 217 71 233 0 41
-18 99 -41 128 l-19 24 11 -33z"/>
<path d="M7415 4706 c8 -20 15 -62 15 -95 0 -86 -53 -246 -93 -279 -22 -19
-10 -64 16 -60 30 4 63 58 92 150 33 104 33 185 1 254 -27 58 -53 83 -31 30z"/>
<path d="M5595 4676 c-41 -18 -72 -54 -89 -104 -15 -40 -14 -42 5 -42 11 0 38
20 61 45 42 45 92 70 121 59 26 -10 20 12 -9 35 -31 24 -47 25 -89 7z"/>
<path d="M7075 4683 c-29 -8 -65 -33 -77 -56 -6 -11 -39 -102 -74 -201 -65
-182 -78 -258 -52 -284 20 -20 28 -14 28 19 0 28 115 372 139 418 15 28 96 64
126 57 34 -9 23 20 -16 39 -29 15 -39 16 -74 8z"/>
<path d="M7927 4669 c-21 -11 -51 -40 -66 -64 -15 -24 -72 -169 -126 -322 -54
-153 -107 -291 -118 -307 -29 -41 -98 -69 -150 -61 l-42 7 26 -26 c14 -15 41
-29 61 -32 48 -8 122 25 147 66 10 17 65 162 121 321 94 265 107 294 144 332
23 24 57 47 76 53 l34 10 -22 22 c-27 27 -36 27 -85 1z"/>
<path d="M3933 4648 c-11 -13 -26 -33 -32 -46 -22 -42 -131 -394 -131 -423 0
-15 8 -35 18 -45 16 -17 17 -17 20 7 2 13 32 114 67 224 67 209 89 249 143
257 21 3 22 4 7 26 -10 14 -26 22 -44 22 -16 0 -36 -10 -48 -22z"/>
<path d="M4787 4648 c-14 -14 -45 -85 -77 -173 -62 -172 -71 -248 -34 -285
l20 -20 -4 35 c-3 26 12 83 54 203 54 156 78 201 115 214 11 4 12 10 3 24 -16
28 -50 29 -77 2z"/>
<path d="M3452 4578 c26 -82 20 -189 -14 -275 l-24 -60 30 7 c47 9 61 47 61
165 -1 83 -5 109 -24 152 -35 80 -53 86 -29 11z"/>
<path d="M2970 4581 c0 -11 30 -36 67 -55 35 -18 119 -21 143 -6 13 8 13 12
-3 27 -13 14 -31 17 -76 15 -36 -2 -73 3 -95 12 -20 8 -36 11 -36 7z"/>
<path d="M8620 4393 c0 -11 -11 -47 -25 -82 -65 -167 -170 -298 -283 -353 -62
-31 -74 -33 -167 -33 -92 0 -104 2 -150 29 l-50 29 30 -33 c56 -60 98 -75 210
-75 88 0 107 3 158 27 113 53 220 184 287 351 32 82 34 123 4 148 -11 9 -14 8
-14 -8z"/>
<path d="M6260 4370 c-1 -40 -62 -179 -107 -246 -52 -77 -119 -136 -192 -171
-80 -38 -216 -45 -286 -14 -26 12 -50 20 -52 17 -10 -9 71 -66 109 -77 73 -19
203 -7 273 26 94 44 174 132 236 259 61 126 70 171 40 206 l-20 25 -1 -25z"/>
<path d="M5371 4177 c-55 -174 -73 -212 -114 -237 -48 -30 -127 -27 -165 5
l-30 25 -58 -21 c-75 -27 -243 -37 -323 -19 -61 14 -119 40 -167 75 l-30 23
-58 -39 c-73 -49 -140 -69 -232 -69 -79 0 -141 18 -190 55 l-32 24 -27 -20
c-44 -35 -120 -59 -189 -59 -52 0 -75 6 -122 31 l-59 30 30 -32 c89 -95 252
-106 372 -25 36 25 38 25 58 7 49 -46 86 -56 195 -56 120 0 173 15 247 72 l45
34 22 -20 c32 -30 117 -69 176 -82 78 -17 251 -7 325 19 l59 20 29 -24 c57
-48 176 -23 211 44 8 15 35 95 61 177 26 83 49 151 50 153 2 2 17 -4 34 -12
47 -25 75 -21 88 13 l11 29 -52 -5 c-37 -4 -61 -1 -84 11 -17 9 -32 16 -34 16
-2 0 -23 -64 -47 -143z"/>
<path d="M2884 4256 c-56 -25 -83 -88 -49 -116 9 -7 17 -11 18 -9 2 2 11 17
21 32 35 56 123 70 185 30 41 -27 19 9 -26 40 -47 34 -106 43 -149 23z"/>
<path d="M7220 4035 c-60 -80 -164 -119 -304 -113 -79 3 -99 8 -148 35 -70 38
-76 26 -10 -21 72 -53 135 -69 250 -64 115 5 177 31 247 104 42 44 44 45 88
39 43 -7 45 -6 49 22 l4 28 -76 2 c-75 2 -75 2 -100 -32z"/>
<path d="M3480 4038 c-19 -6 -71 -8 -114 -6 -78 5 -81 4 -124 -29 -61 -46
-107 -68 -179 -87 -148 -39 -327 -5 -417 79 -15 14 -29 25 -30 23 -39 -87 -86
-122 -153 -115 -51 5 -55 -6 -10 -33 66 -41 153 -13 185 59 l18 39 29 -25
c158 -129 428 -124 599 10 38 30 42 31 147 31 118 1 138 9 113 44 -17 24 -15
24 -64 10z"/>
<path d="M4350 3625 c0 -32 -106 -372 -145 -467 -6 -15 -2 -18 23 -18 29 0 30
1 92 183 73 208 84 278 51 317 l-20 25 -1 -40z"/>
<path d="M4905 3612 c-1 -34 -46 -179 -158 -507 -87 -252 -160 -476 -163 -496
-6 -35 8 -79 25 -79 5 0 12 15 15 33 3 17 76 237 161 487 86 250 158 473 162
496 3 27 0 51 -11 72 -24 46 -31 45 -31 -6z"/>
<path d="M7120 3640 c0 -14 -25 -100 -55 -190 -30 -90 -55 -166 -55 -168 0 -2
12 -2 27 0 25 3 30 12 77 149 50 148 53 173 22 214 -15 20 -15 19 -16 -5z"/>
<path d="M6333 3208 c11 -42 -3 -87 -40 -126 -42 -45 -41 -52 37 -192 70 -126
90 -183 90 -256 0 -52 1 -54 20 -44 39 21 18 98 -74 258 -73 129 -76 145 -37
178 41 34 56 87 42 141 -13 47 -49 88 -38 41z"/>
<path d="M7170 3194 c0 -34 -33 -83 -65 -98 -20 -10 -60 -16 -102 -16 l-69 0
-82 -233 c-45 -129 -82 -247 -82 -264 0 -16 8 -37 18 -46 16 -15 18 -15 20 7
1 12 38 125 82 251 44 125 80 229 80 231 0 1 38 4 84 5 77 4 87 7 115 33 36
35 47 77 31 117 -13 31 -30 39 -30 13z"/>
<path d="M5647 3065 c12 -48 13 -69 3 -119 -16 -80 -56 -185 -80 -211 -11 -12
-20 -33 -20 -48 0 -22 5 -27 25 -27 31 0 64 56 96 160 36 116 28 216 -20 279
-19 24 -19 24 -4 -34z"/>
<path d="M5285 3066 c-53 -24 -72 -58 -139 -250 -65 -186 -76 -239 -56 -277
15 -28 30 -23 30 9 0 46 130 404 158 434 29 32 83 52 112 43 25 -8 26 7 2 28
-26 24 -72 29 -107 13z"/>
<path d="M6602 3060 c17 -26 48 -36 59 -19 18 28 9 39 -31 39 -38 0 -39 -1
-28 -20z"/>
<path d="M3778 2909 c38 -34 48 -36 57 -8 8 26 9 25 -45 32 l-45 6 33 -30z"/>
<path d="M4040 2679 c-103 -306 -110 -323 -152 -349 -36 -22 -107 -27 -139 -9
-19 10 -19 9 -9 -10 38 -72 190 -65 231 11 7 13 54 142 104 288 l91 265 109 3
c108 3 124 8 125 40 0 9 -34 12 -137 12 l-138 0 -85 -251z"/>
<path d="M6076 2831 c-4 -5 3 -25 14 -43 59 -97 -22 -238 -137 -238 l-27 0 22
-22 c44 -45 124 -24 175 44 28 37 34 117 12 160 -9 18 -18 41 -20 50 -6 28
-32 61 -39 49z"/>
<path d="M7330 2762 c0 -28 -40 -119 -85 -197 -54 -92 -137 -173 -221 -216
-66 -33 -74 -34 -179 -34 -123 0 -181 18 -241 76 l-31 30 -49 -30 c-204 -125
-606 -126 -747 -3 -16 15 -17 14 -12 -1 8 -20 57 -57 112 -86 173 -87 517 -69
685 38 l46 29 21 -22 c12 -13 48 -36 79 -52 53 -27 65 -29 172 -29 107 0 119
2 175 29 94 46 201 159 258 274 52 104 65 152 48 188 -13 28 -31 32 -31 6z"/>
<path d="M5635 2458 c-22 -5 -66 -7 -98 -3 l-57 6 -48 -48 c-26 -27 -69 -60
-97 -73 -45 -22 -63 -25 -170 -25 -129 0 -162 10 -233 70 l-30 25 -52 -35
c-75 -50 -145 -68 -249 -63 -73 3 -95 9 -146 36 l-60 32 46 -43 c58 -53 126
-77 223 -77 90 0 159 20 227 66 l52 35 26 -25 c14 -13 46 -34 71 -47 40 -21
58 -24 165 -24 107 0 125 3 170 25 28 13 71 46 98 73 45 47 49 48 88 42 44 -8
136 1 158 14 11 7 11 12 0 30 -15 23 -24 24 -84 9z"/>
</g>
</svg>
